<svg width="27" height="22" viewBox="0 0 27 22" fill="none" xmlns="http://www.w3.org/2000/svg">
<path d="M24.6553 0.361572L19.8172 1.20657L23.1904 5.04157L25.6155 4.60824L24.6553 0.361572ZM16.1979 1.83491L13.7727 2.25741L17.1582 6.08157L19.571 5.65907L16.1979 1.83491ZM10.1657 2.87491L7.74055 3.31907L11.126 7.14324L13.5388 6.72074L10.1657 2.87491ZM4.12123 3.95824L2.91479 4.16407C2.27511 4.27654 1.7123 4.60781 1.34992 5.08513C0.987546 5.56245 0.855231 6.14681 0.982031 6.70991L1.46214 8.83324L7.49434 7.78241L4.12123 3.95824ZM1.46214 8.83324V19.6666C1.46214 20.8691 2.5701 21.8332 3.92426 21.8332H23.6212C24.9877 21.8332 26.0833 20.8691 26.0833 19.6666V8.83324H1.46214Z" fill="white"/>
</svg>
